<svg xmlns="http://www.w3.org/2000/svg" xmlns:xlink="http://www.w3.org/1999/xlink" contentStyleType="text/css" data-diagram-type="SEQUENCE" height="976px" preserveAspectRatio="none" style="width:790px;height:976px;background:#FFFFFF;" version="1.1" viewBox="0 0 790 976" width="790px" zoomAndPan="magnify"><defs/><g><g><title>Airflow DAG</title><rect fill="#FFFFFF" height="884.8945" style="stroke:#181818;stroke-width:1;" width="10" x="83.354" y="46.4883"/></g><g><title>BPGOperator</title><rect fill="#FFFFFF" height="863.584" style="stroke:#181818;stroke-width:1;" width="10" x="217.7505" y="67.7988"/></g><g><title>BaseHook</title><rect fill="#FFFFFF" height="29.3105" style="stroke:#181818;stroke-width:1;" width="10" x="439.0654" y="391.5039"/></g><g><title>BPG Service</title><rect fill="#FFFFFF" height="29.3105" style="stroke:#181818;stroke-width:1;" width="10" x="733.8428" y="492.4355"/></g><g><title>BPG Service</title><rect fill="#FFFFFF" height="29.3105" style="stroke:#181818;stroke-width:1;" width="10" x="733.8428" y="575.3672"/></g><g><title>BPG Service</title><rect fill="#FFFFFF" height="29.3105" style="stroke:#181818;stroke-width:1;" width="10" x="733.8428" y="658.2988"/></g><rect fill="none" height="280.3945" style="stroke:#000000;stroke-width:1.5;" width="550.4673" x="152.5405" y="82.7988"/><rect fill="none" height="149.5078" style="stroke:#000000;stroke-width:1.5;" width="530.4673" x="162.5405" y="164.375"/><rect fill="none" height="135.1973" style="stroke:#000000;stroke-width:1.5;" width="371.7056" x="30" y="789.1855"/><rect fill="none" height="17.3105" style="stroke:#000000;stroke-width:1.5;" width="88.0098" x="50" y="857.7617"/><g><title>Airflow DAG</title><rect fill="#000000" fill-opacity="0.00000" height="904.8945" width="8" x="84.354" y="36.4883"/><line style="stroke:#181818;stroke-width:0.5;stroke-dasharray:5.0,5.0;" x1="88" x2="88" y1="36.4883" y2="941.3828"/></g><g><title>BPGOperator</title><rect fill="#000000" fill-opacity="0.00000" height="904.8945" width="8" x="218.7505" y="36.4883"/><line style="stroke:#181818;stroke-width:0.5;stroke-dasharray:5.0,5.0;" x1="222.5405" x2="222.5405" y1="36.4883" y2="941.3828"/></g><g><title>BaseHook</title><rect fill="#000000" fill-opacity="0.00000" height="904.8945" width="8" x="440.0654" y="36.4883"/><line style="stroke:#181818;stroke-width:0.5;stroke-dasharray:5.0,5.0;" x1="443.8701" x2="443.8701" y1="36.4883" y2="941.3828"/></g><g><title>Amazon S3/Local Storage</title><rect fill="#000000" fill-opacity="0.00000" height="904.8945" width="8" x="584.6343" y="36.4883"/><line style="stroke:#181818;stroke-width:0.5;stroke-dasharray:5.0,5.0;" x1="588.2607" x2="588.2607" y1="36.4883" y2="941.3828"/></g><g><title>BPG Service</title><rect fill="#000000" fill-opacity="0.00000" height="904.8945" width="8" x="734.8428" y="36.4883"/><line style="stroke:#181818;stroke-width:0.5;stroke-dasharray:5.0,5.0;" x1="738.0078" x2="738.0078" y1="36.4883" y2="941.3828"/></g><g class="participant participant-head" data-participant="DAG"><rect fill="#E2E2F0" height="30.4883" rx="2.5" ry="2.5" style="stroke:#181818;stroke-width:0.5;" width="96.708" x="40" y="5"/><text fill="#000000" font-family="sans-serif" font-size="14" lengthAdjust="spacing" textLength="82.708" x="47" y="25.5352">Airflow DAG</text></g><g class="participant participant-tail" data-participant="DAG"><rect fill="#E2E2F0" height="30.4883" rx="2.5" ry="2.5" style="stroke:#181818;stroke-width:0.5;" width="96.708" x="40" y="940.3828"/><text fill="#000000" font-family="sans-serif" font-size="14" lengthAdjust="spacing" textLength="82.708" x="47" y="960.918">Airflow DAG</text></g><g class="participant participant-head" data-participant="BPG"><rect fill="#E2E2F0" height="30.4883" rx="2.5" ry="2.5" style="stroke:#181818;stroke-width:0.5;" width="100.4199" x="172.5405" y="5"/><text fill="#000000" font-family="sans-serif" font-size="14" lengthAdjust="spacing" textLength="86.4199" x="179.5405" y="25.5352">BPGOperator</text></g><g class="participant participant-tail" data-participant="BPG"><rect fill="#E2E2F0" height="30.4883" rx="2.5" ry="2.5" style="stroke:#181818;stroke-width:0.5;" width="100.4199" x="172.5405" y="940.3828"/><text fill="#000000" font-family="sans-serif" font-size="14" lengthAdjust="spacing" textLength="86.4199" x="179.5405" y="960.918">BPGOperator</text></g><g class="participant participant-head" data-participant="Hook"><rect fill="#E2E2F0" height="30.4883" rx="2.5" ry="2.5" style="stroke:#181818;stroke-width:0.5;" width="80.3906" x="403.8701" y="5"/><text fill="#000000" font-family="sans-serif" font-size="14" lengthAdjust="spacing" textLength="66.3906" x="410.8701" y="25.5352">BaseHook</text></g><g class="participant participant-tail" data-participant="Hook"><rect fill="#E2E2F0" height="30.4883" rx="2.5" ry="2.5" style="stroke:#181818;stroke-width:0.5;" width="80.3906" x="403.8701" y="940.3828"/><text fill="#000000" font-family="sans-serif" font-size="14" lengthAdjust="spacing" textLength="66.3906" x="410.8701" y="960.918">BaseHook</text></g><g class="participant participant-head" data-participant="Storage"><rect fill="#E2E2F0" height="30.4883" rx="2.5" ry="2.5" style="stroke:#181818;stroke-width:0.5;" width="188.7471" x="494.2607" y="5"/><text fill="#000000" font-family="sans-serif" font-size="14" lengthAdjust="spacing" textLength="174.7471" x="501.2607" y="25.5352">Amazon S3/Local Storage</text></g><g class="participant participant-tail" data-participant="Storage"><rect fill="#E2E2F0" height="30.4883" rx="2.5" ry="2.5" style="stroke:#181818;stroke-width:0.5;" width="188.7471" x="494.2607" y="940.3828"/><text fill="#000000" font-family="sans-serif" font-size="14" lengthAdjust="spacing" textLength="174.7471" x="501.2607" y="960.918">Amazon S3/Local Storage</text></g><g class="participant participant-head" data-participant="Service"><rect fill="#E2E2F0" height="30.4883" rx="2.5" ry="2.5" style="stroke:#181818;stroke-width:0.5;" width="91.6699" x="693.0078" y="5"/><text fill="#000000" font-family="sans-serif" font-size="14" lengthAdjust="spacing" textLength="77.6699" x="700.0078" y="25.5352">BPG Service</text></g><g class="participant participant-tail" data-participant="Service"><rect fill="#E2E2F0" height="30.4883" rx="2.5" ry="2.5" style="stroke:#181818;stroke-width:0.5;" width="91.6699" x="693.0078" y="940.3828"/><text fill="#000000" font-family="sans-serif" font-size="14" lengthAdjust="spacing" textLength="77.6699" x="700.0078" y="960.918">BPG Service</text></g><g><title>Airflow DAG</title><rect fill="#FFFFFF" height="884.8945" style="stroke:#181818;stroke-width:1;" width="10" x="83.354" y="46.4883"/></g><g><title>BPGOperator</title><rect fill="#FFFFFF" height="863.584" style="stroke:#181818;stroke-width:1;" width="10" x="217.7505" y="67.7988"/></g><g><title>BaseHook</title><rect fill="#FFFFFF" height="29.3105" style="stroke:#181818;stroke-width:1;" width="10" x="439.0654" y="391.5039"/></g><g><title>BPG Service</title><rect fill="#FFFFFF" height="29.3105" style="stroke:#181818;stroke-width:1;" width="10" x="733.8428" y="492.4355"/></g><g><title>BPG Service</title><rect fill="#FFFFFF" height="29.3105" style="stroke:#181818;stroke-width:1;" width="10" x="733.8428" y="575.3672"/></g><g><title>BPG Service</title><rect fill="#FFFFFF" height="29.3105" style="stroke:#181818;stroke-width:1;" width="10" x="733.8428" y="658.2988"/></g><g class="message" data-participant-1="DAG" data-participant-2="BPG"><polygon fill="#181818" points="205.7505,63.7988,215.7505,67.7988,205.7505,71.7988,209.7505,67.7988" style="stroke:#181818;stroke-width:1;"/><line style="stroke:#181818;stroke-width:1;" x1="93.354" x2="211.7505" y1="67.7988" y2="67.7988"/><text fill="#000000" font-family="sans-serif" font-size="13" lengthAdjust="spacing" textLength="105.3965" x="102.854" y="63.0566">execute(context)</text></g><path d="M152.5405,82.7988 L214.6792,82.7988 L214.6792,90.1094 L204.6792,100.1094 L152.5405,100.1094 L152.5405,82.7988" fill="#EEEEEE" style="stroke:#000000;stroke-width:1.5;"/><rect fill="none" height="280.3945" style="stroke:#000000;stroke-width:1.5;" width="550.4673" x="152.5405" y="82.7988"/><text fill="#000000" font-family="sans-serif" font-size="13" font-weight="bold" lengthAdjust="spacing" textLength="17.1387" x="167.5405" y="96.3672">alt</text><text fill="#000000" font-family="sans-serif" font-size="11" font-weight="bold" lengthAdjust="spacing" textLength="173.2124" x="229.6792" y="95.4336">[application_content provided]</text><g class="message" data-participant-1="BPG" data-participant-2="BPG"><line style="stroke:#181818;stroke-width:1;" x1="227.7505" x2="269.7505" y1="121.4199" y2="121.4199"/><line style="stroke:#181818;stroke-width:1;" x1="269.7505" x2="269.7505" y1="121.4199" y2="134.4199"/><line style="stroke:#181818;stroke-width:1;" x1="228.7505" x2="269.7505" y1="134.4199" y2="134.4199"/><polygon fill="#181818" points="238.7505,130.4199,228.7505,134.4199,238.7505,138.4199,234.7505,134.4199" style="stroke:#181818;stroke-width:1;"/><text fill="#000000" font-family="sans-serif" font-size="13" lengthAdjust="spacing" textLength="129.7905" x="234.7505" y="116.6777">_parse_file_content()</text></g><line style="stroke:#000000;stroke-width:1;stroke-dasharray:2.0,2.0;" x1="152.5405" x2="703.0078" y1="143.4199" y2="143.4199"/><text fill="#000000" font-family="sans-serif" font-size="11" font-weight="bold" lengthAdjust="spacing" textLength="148.6826" x="157.5405" y="154.0547">[application_file provided]</text><path d="M162.5405,164.375 L224.6792,164.375 L224.6792,171.6855 L214.6792,181.6855 L162.5405,181.6855 L162.5405,164.375" fill="#EEEEEE" style="stroke:#000000;stroke-width:1.5;"/><rect fill="none" height="149.5078" style="stroke:#000000;stroke-width:1.5;" width="530.4673" x="162.5405" y="164.375"/><text fill="#000000" font-family="sans-serif" font-size="13" font-weight="bold" lengthAdjust="spacing" textLength="17.1387" x="177.5405" y="177.9434">alt</text><text fill="#000000" font-family="sans-serif" font-size="11" font-weight="bold" lengthAdjust="spacing" textLength="112.5728" x="239.6792" y="177.0098">[is_mwaa() == true]</text><g class="message" data-participant-1="BPG" data-participant-2="Storage"><polygon fill="#181818" points="576.6343,198.9961,586.6343,202.9961,576.6343,206.9961,580.6343,202.9961" style="stroke:#181818;stroke-width:1;"/><line style="stroke:#181818;stroke-width:1;" x1="227.7505" x2="582.6343" y1="202.9961" y2="202.9961"/><text fill="#000000" font-family="sans-serif" font-size="13" lengthAdjust="spacing" textLength="104.6348" x="355.875" y="198.2539">_fetch_from_s3()</text></g><g class="message" data-participant-1="Storage" data-participant-2="BPG"><polygon fill="#181818" points="238.7505,228.3066,228.7505,232.3066,238.7505,236.3066,234.7505,232.3066" style="stroke:#181818;stroke-width:1;"/><line style="stroke:#181818;stroke-width:1;stroke-dasharray:2.0,2.0;" x1="232.7505" x2="587.6343" y1="232.3066" y2="232.3066"/><text fill="#000000" font-family="sans-serif" font-size="13" lengthAdjust="spacing" textLength="71.3984" x="372.4932" y="227.5645">file content</text></g><line style="stroke:#000000;stroke-width:1;stroke-dasharray:2.0,2.0;" x1="162.5405" x2="693.0078" y1="241.3066" y2="241.3066"/><text fill="#000000" font-family="sans-serif" font-size="11" font-weight="bold" lengthAdjust="spacing" textLength="110.0967" x="167.5405" y="251.9414">[local environment]</text><g class="message" data-participant-1="BPG" data-participant-2="Storage"><polygon fill="#181818" points="576.6343,272.5723,586.6343,276.5723,576.6343,280.5723,580.6343,276.5723" style="stroke:#181818;stroke-width:1;"/><line style="stroke:#181818;stroke-width:1;" x1="227.7505" x2="582.6343" y1="276.5723" y2="276.5723"/><text fill="#000000" font-family="sans-serif" font-size="13" lengthAdjust="spacing" textLength="119.1265" x="348.6292" y="271.8301">_fetch_from_local()</text></g><g class="message" data-participant-1="Storage" data-participant-2="BPG"><polygon fill="#181818" points="238.7505,301.8828,228.7505,305.8828,238.7505,309.8828,234.7505,305.8828" style="stroke:#181818;stroke-width:1;"/><line style="stroke:#181818;stroke-width:1;stroke-dasharray:2.0,2.0;" x1="232.7505" x2="587.6343" y1="305.8828" y2="305.8828"/><text fill="#000000" font-family="sans-serif" font-size="13" lengthAdjust="spacing" textLength="71.3984" x="372.4932" y="301.1406">file content</text></g><g class="message" data-participant-1="BPG" data-participant-2="BPG"><line style="stroke:#181818;stroke-width:1;" x1="227.7505" x2="269.7505" y1="342.1934" y2="342.1934"/><line style="stroke:#181818;stroke-width:1;" x1="269.7505" x2="269.7505" y1="342.1934" y2="355.1934"/><line style="stroke:#181818;stroke-width:1;" x1="228.7505" x2="269.7505" y1="355.1934" y2="355.1934"/><polygon fill="#181818" points="238.7505,351.1934,228.7505,355.1934,238.7505,359.1934,234.7505,355.1934" style="stroke:#181818;stroke-width:1;"/><text fill="#000000" font-family="sans-serif" font-size="13" lengthAdjust="spacing" textLength="129.7905" x="234.7505" y="337.4512">_parse_file_content()</text></g><g class="message" data-participant-1="BPG" data-participant-2="Hook"><polygon fill="#181818" points="427.0654,387.5039,437.0654,391.5039,427.0654,395.5039,431.0654,391.5039" style="stroke:#181818;stroke-width:1;"/><line style="stroke:#181818;stroke-width:1;" x1="227.7505" x2="433.0654" y1="391.5039" y2="391.5039"/><text fill="#000000" font-family="sans-serif" font-size="13" lengthAdjust="spacing" textLength="192.3149" x="237.2505" y="386.7617">get_connection(connection_id)</text></g><g class="message" data-participant-1="Hook" data-participant-2="BPG"><polygon fill="#181818" points="238.7505,416.8145,228.7505,420.8145,238.7505,424.8145,234.7505,420.8145" style="stroke:#181818;stroke-width:1;"/><line style="stroke:#181818;stroke-width:1;stroke-dasharray:2.0,2.0;" x1="232.7505" x2="443.0654" y1="420.8145" y2="420.8145"/><text fill="#000000" font-family="sans-serif" font-size="13" lengthAdjust="spacing" textLength="115.0767" x="278.3696" y="416.0723">connection details</text></g><g class="message" data-participant-1="BPG" data-participant-2="BPG"><line style="stroke:#181818;stroke-width:1;" x1="227.7505" x2="269.7505" y1="450.125" y2="450.125"/><line style="stroke:#181818;stroke-width:1;" x1="269.7505" x2="269.7505" y1="450.125" y2="463.125"/><line style="stroke:#181818;stroke-width:1;" x1="228.7505" x2="269.7505" y1="463.125" y2="463.125"/><polygon fill="#181818" points="238.7505,459.125,228.7505,463.125,238.7505,467.125,234.7505,463.125" style="stroke:#181818;stroke-width:1;"/><text fill="#000000" font-family="sans-serif" font-size="13" lengthAdjust="spacing" textLength="91.5269" x="234.7505" y="445.3828">_get_headers()</text></g><g class="message" data-participant-1="BPG" data-participant-2="Service"><polygon fill="#181818" points="721.8428,488.4355,731.8428,492.4355,721.8428,496.4355,725.8428,492.4355" style="stroke:#181818;stroke-width:1;"/><line style="stroke:#181818;stroke-width:1;" x1="227.7505" x2="727.8428" y1="492.4355" y2="492.4355"/><text fill="#000000" font-family="sans-serif" font-size="13" lengthAdjust="spacing" textLength="214.0557" x="373.7688" y="487.6934">POST /skatev2/spark (submit job)</text></g><g class="message" data-participant-1="Service" data-participant-2="BPG"><polygon fill="#181818" points="238.7505,517.7461,228.7505,521.7461,238.7505,525.7461,234.7505,521.7461" style="stroke:#181818;stroke-width:1;"/><line style="stroke:#181818;stroke-width:1;stroke-dasharray:2.0,2.0;" x1="232.7505" x2="737.8428" y1="521.7461" y2="521.7461"/><text fill="#000000" font-family="sans-serif" font-size="13" lengthAdjust="spacing" textLength="90.2764" x="438.1584" y="517.0039">submission_id</text></g><g class="message" data-participant-1="BPG" data-participant-2="Service"><polygon fill="#181818" points="721.8428,571.3672,731.8428,575.3672,721.8428,579.3672,725.8428,575.3672" style="stroke:#181818;stroke-width:1;"/><line style="stroke:#181818;stroke-width:1;" x1="227.7505" x2="727.8428" y1="575.3672" y2="575.3672"/><text fill="#000000" font-family="sans-serif" font-size="13" lengthAdjust="spacing" textLength="276.3643" x="342.6145" y="570.625">GET /skatev2/spark/{submission_id}/status</text></g><g class="message" data-participant-1="Service" data-participant-2="BPG"><polygon fill="#181818" points="238.7505,600.6777,228.7505,604.6777,238.7505,608.6777,234.7505,604.6777" style="stroke:#181818;stroke-width:1;"/><line style="stroke:#181818;stroke-width:1;stroke-dasharray:2.0,2.0;" x1="232.7505" x2="737.8428" y1="604.6777" y2="604.6777"/><text fill="#000000" font-family="sans-serif" font-size="13" lengthAdjust="spacing" textLength="62.4609" x="452.0662" y="599.9355">job status</text></g><g class="message" data-participant-1="BPG" data-participant-2="Service"><polygon fill="#181818" points="721.8428,654.2988,731.8428,658.2988,721.8428,662.2988,725.8428,658.2988" style="stroke:#181818;stroke-width:1;"/><line style="stroke:#181818;stroke-width:1;" x1="227.7505" x2="727.8428" y1="658.2988" y2="658.2988"/><text fill="#000000" font-family="sans-serif" font-size="13" lengthAdjust="spacing" textLength="260.0698" x="350.7617" y="653.5566">GET /skatev2/log?subId={submission_id}</text></g><g class="message" data-participant-1="Service" data-participant-2="BPG"><polygon fill="#181818" points="238.7505,683.6094,228.7505,687.6094,238.7505,691.6094,234.7505,687.6094" style="stroke:#181818;stroke-width:1;"/><line style="stroke:#181818;stroke-width:1;stroke-dasharray:2.0,2.0;" x1="232.7505" x2="737.8428" y1="687.6094" y2="687.6094"/><text fill="#000000" font-family="sans-serif" font-size="13" lengthAdjust="spacing" textLength="67.3296" x="449.6318" y="682.8672">log stream</text></g><g class="message" data-participant-1="BPG" data-participant-2="BPG"><line style="stroke:#181818;stroke-width:1;" x1="227.7505" x2="269.7505" y1="716.9199" y2="716.9199"/><line style="stroke:#181818;stroke-width:1;" x1="269.7505" x2="269.7505" y1="716.9199" y2="729.9199"/><line style="stroke:#181818;stroke-width:1;" x1="228.7505" x2="269.7505" y1="729.9199" y2="729.9199"/><polygon fill="#181818" points="238.7505,725.9199,228.7505,729.9199,238.7505,733.9199,234.7505,729.9199" style="stroke:#181818;stroke-width:1;"/><text fill="#000000" font-family="sans-serif" font-size="13" lengthAdjust="spacing" textLength="131.1045" x="234.7505" y="712.1777">log.info(log_content)</text></g><g class="message" data-participant-1="BPG" data-participant-2="DAG"><polygon fill="#181818" points="104.354,770.1855,94.354,774.1855,104.354,778.1855,100.354,774.1855" style="stroke:#181818;stroke-width:1;"/><line style="stroke:#181818;stroke-width:1;stroke-dasharray:2.0,2.0;" x1="98.354" x2="216.7505" y1="774.1855" y2="774.1855"/><text fill="#000000" font-family="sans-serif" font-size="13" lengthAdjust="spacing" textLength="48.8833" x="131.1106" y="769.4434">Success</text></g><path d="M30,789.1855 L113.0098,789.1855 L113.0098,796.4961 L103.0098,806.4961 L30,806.4961 L30,789.1855" fill="#EEEEEE" style="stroke:#000000;stroke-width:1.5;"/><rect fill="none" height="135.1973" style="stroke:#000000;stroke-width:1.5;" width="371.7056" x="30" y="789.1855"/><text fill="#000000" font-family="sans-serif" font-size="13" font-weight="bold" lengthAdjust="spacing" textLength="38.0098" x="45" y="802.7539">break</text><line style="stroke:#000000;stroke-width:1;stroke-dasharray:2.0,2.0;" x1="30" x2="401.7056" y1="807.4961" y2="807.4961"/><text fill="#000000" font-family="sans-serif" font-size="11" font-weight="bold" lengthAdjust="spacing" textLength="117.6753" x="35" y="818.1309">[status == "FAILED"]</text><g class="message" data-participant-1="BPG" data-participant-2="DAG"><polygon fill="#181818" points="104.354,838.7617,94.354,842.7617,104.354,846.7617,100.354,842.7617" style="stroke:#181818;stroke-width:1;"/><line style="stroke:#181818;stroke-width:1;stroke-dasharray:2.0,2.0;" x1="98.354" x2="216.7505" y1="842.7617" y2="842.7617"/><text fill="#000000" font-family="sans-serif" font-size="13" lengthAdjust="spacing" textLength="98.9155" x="106.0945" y="838.0195">Raise Exception</text></g><path d="M50,857.7617 L133.0098,857.7617 L133.0098,865.0723 L123.0098,875.0723 L50,875.0723 L50,857.7617" fill="#EEEEEE" style="stroke:#000000;stroke-width:1.5;"/><rect fill="none" height="17.3105" style="stroke:#000000;stroke-width:1.5;" width="88.0098" x="50" y="857.7617"/><text fill="#000000" font-family="sans-serif" font-size="13" font-weight="bold" lengthAdjust="spacing" textLength="38.0098" x="65" y="871.3301">break</text><g class="message" data-participant-1="BPG" data-participant-2="BPG"><line style="stroke:#181818;stroke-width:1;" x1="227.7505" x2="269.7505" y1="903.3828" y2="903.3828"/><line style="stroke:#181818;stroke-width:1;" x1="269.7505" x2="269.7505" y1="903.3828" y2="916.3828"/><line style="stroke:#181818;stroke-width:1;" x1="228.7505" x2="269.7505" y1="916.3828" y2="916.3828"/><polygon fill="#181818" points="238.7505,912.3828,228.7505,916.3828,238.7505,920.3828,234.7505,916.3828" style="stroke:#181818;stroke-width:1;"/><text fill="#000000" font-family="sans-serif" font-size="13" lengthAdjust="spacing" textLength="144.9551" x="234.7505" y="898.6406">sleep(log_poll_interval)</text></g><!--SRC=[bPJ1Zjem48RlUOeH9pXiaRet95hHNKgHM43BzXmPPm0tZftQ3g1MVVUEJH92IDKM2U9e_fd_yp2sJONAcM4PMFnUeEBuWjQoFKwas2lWg1oQoDQgBUFftkX29KzQQWEdWt0OHHHqWekSAGUzYJ0xgK_mF9drW5d_l1LyMizMEHhcj0a2Ucy9cCKlMgSXwXSjWupzq0esZyE5vap2XWeHSb2Nwpj3sA0v2bwABkieOjo98tCO6EaB3nyypGZmZBnmsEUQ6d1sWwlImqPCEc1vBWLdJcWL1navvKOVHO991FJnhbMzc7WinZiXiHBt1n5AYpTrVFosY7SIDivEZFK7C1w3CmM6ICEYt3JPxD3nGxmpEelj8pbKmb813nLGS2f9WYgmoD1FL4TXjCggqD-SGjR_cQb_RX4ferBc9s44UtG-hf3xblMlorWaZVyfZ8t_kM9SfP2WOqBQAC7RXEY6o5iTa2LeBA5KBRWCpmZMgyqR36rAoSVtGqluAVHjiSs4Wszwss2fvgryNec2sjeBV1Ecdb2fTGw5SaBwchI5B9Veq08TFYSor8LhThA6cqtRRCEVDsw_XjOnLzZBbBLzmz_OflK0ZQGkt6faBp8_hxtNhylbV3dhtOrI9whK-u_4EK_6BTmwlPEravTg4OX1bjMQ3kOMLfNvJgYTxjEY6iR1zPWqTlUqUbalfc_JvzR-g1BT9oFO59pJZLe7juIJTbRwF9al_bZcbGbIJyySSp-_NUNA8tLthgn4pCD6SYrbBFoDVcIoF5gDXlYRhV7ghyJV]--></g></svg>